<svg width="32" height="32" viewBox="0 0 100 100" fill="none" xmlns="http://www.w3.org/2000/svg">
  <rect width="100" height="100" rx="20" fill="#0d1220"/>
  <path d="M50 22C32 22 16 50 16 50s16 28 34 28 34-28 34-28S68 22 50 22Z" stroke="white" stroke-width="5" stroke-linecap="round" stroke-linejoin="round"/>
  <path d="M50 30a20 20 0 0 0-20 20h20V30Z" fill="#8b5cf6"/>
  <path d="M50 30a20 20 0 0 1 20 20H50V30Z" fill="#10b981"/>
  <path d="M30 50a20 20 0 0 0 20 20V50H30Z" fill="#ef4444"/>
  <path d="M70 50a20 20 0 0 1-20 20V50h20Z" fill="#f59e0b"/>
  <circle cx="50" cy="50" r="11" fill="#0d1220"/>
  <circle cx="50" cy="50" r="4" fill="white"/>
</svg>
