<svg width="100" height="100" viewBox="0 0 100 100" fill="none" xmlns="http://www.w3.org/2000/svg">
  <!-- Eye outline -->
  <path d="M50 18C28 18 10 50 10 50s18 32 40 32 40-32 40-32S72 18 50 18Z" stroke="white" stroke-width="5" stroke-linecap="round" stroke-linejoin="round"/>
  <!-- Purple (Sorcerer) -->
  <path d="M50 28a22 22 0 0 0-22 22h22V28Z" fill="#8b5cf6"/>
  <!-- Green (Druid) -->
  <path d="M50 28a22 22 0 0 1 22 22H50V28Z" fill="#10b981"/>
  <!-- Red (Knight) -->
  <path d="M28 50a22 22 0 0 0 22 22V50H28Z" fill="#ef4444"/>
  <!-- Amber (Paladin) -->
  <path d="M72 50a22 22 0 0 1-22 22V50h22Z" fill="#f59e0b"/>
  <!-- Donut cutout -->
  <circle cx="50" cy="50" r="12" fill="#0d1220"/>
  <!-- Pupil -->
  <circle cx="50" cy="50" r="4" fill="white"/>
</svg>
